name C:\Users\u0101727\Documents\MyRepositories\upper-imu-dc\Results\main_tracking\Case_28\kinematics.mot
datacolumns 43
datarows 5
range 1.50000000 1.54000000
endheader 
time	clav_prot	clav_elev	scapula_abduction	scapula_elevation	scapula_upward_rot	scapula_winging	plane_elv	shoulder_elv	axial_rot	TrapeziusScapula_M/activation	TrapeziusScapula_S/activation	TrapeziusScapula_I/activation	TrapeziusClavicle_S/activation	SerratusAnterior_I/activation	SerratusAnterior_M/activation	SerratusAnterior_S/activation	Rhomboideus_S/activation	Rhomboideus_I/activation	LevatorScapulae/activation	Coracobrachialis/activation	DeltoideusClavicle_A/activation	DeltoideusScapula_P/activation	DeltoideusScapula_M/activation	LatissimusDorsi_S/activation	LatissimusDorsi_M/activation	LatissimusDorsi_I/activation	PectoralisMajorClavicle_S/activation	PectoralisMajorThorax_I/activation	PectoralisMajorThorax_M/activation	TeresMajor/activation	Infraspinatus_I/activation	Infraspinatus_S/activation	PectoralisMinor/activation	TeresMinor/activation	Subscapularis_S/activation	Subscapularis_M/activation	Subscapularis_I/activation	Supraspinatus_P/activation	Supraspinatus_A/activation	TRIlong/activation	BIC_long/activation	BIC_brevis/activation	
          1.50000000	        -22.98266271	          0.77147206	          1.03575249	         -5.21676885	         36.09525561	         -1.60767412	         67.84573197	         54.07689614	        -23.46854430	          0.01008109	          0.01007461	          0.01008937	          0.01008961	          0.01009489	          0.01009587	          0.01010323	          0.01008541	          0.01008999	          0.01009367	          0.01010351	          0.01009485	          0.01010145	          0.01008998	          0.01009727	          0.01009852	          0.01010015	          0.01009688	          0.01010057	          0.01009910	          0.01010662	          0.01011133	          0.01007863	          0.01011827	          0.01011294	          0.01009734	          0.01010129	          0.01009664	          0.01008708	          0.01009522	          0.01011153	          0.01009309	          0.01009895	
          1.51000000	        -23.05635893	          0.89591190	          1.17495936	         -5.10015231	         36.25013844	         -1.69984885	         67.98088505	         54.46794413	        -23.00781994	          0.01016112	          0.01015374	          0.01010781	          0.01011094	          0.01010023	          0.01010231	          0.01010469	          0.01013835	          0.01013449	          0.01011773	          0.01010279	          0.01010440	          0.01010691	          0.01010682	          0.01010945	          0.01010950	          0.01010833	          0.01010592	          0.01010751	          0.01010670	          0.01010736	          0.01010592	          0.01010621	          0.01010386	          0.01010632	          0.01010735	          0.01010445	          0.01010707	          0.01010798	          0.01010727	          0.01010577	          0.01010603	          0.01010576	
          1.52000000	        -23.23686241	          1.08587279	          0.96952059	         -5.00581132	         36.46171561	         -1.79727264	         68.11191454	         54.85853081	        -22.56826315	          0.01013138	          0.01012912	          0.01010607	          0.01010425	          0.01010213	          0.01009930	          0.01009830	          0.01011121	          0.01011027	          0.01010427	          0.01010133	          0.01010245	          0.01010360	          0.01010327	          0.01010429	          0.01010382	          0.01010159	          0.01010128	          0.01010186	          0.01010205	          0.01010173	          0.01010097	          0.01011430	          0.01010067	          0.01010253	          0.01010264	          0.01010150	          0.01010403	          0.01010375	          0.01010288	          0.01010293	          0.01010320	          0.01010308	
          1.53000000	        -23.16937655	          1.23782609	          1.26109355	         -4.93418232	         36.73935707	         -1.89740825	         68.23399390	         55.24837387	        -22.17279667	          0.01010421	          0.01010369	          0.01010720	          0.01010202	          0.01010681	          0.01010428	          0.01010182	          0.01009772	          0.01009835	          0.01009689	          0.01010169	          0.01010280	          0.01010182	          0.01010221	          0.01010287	          0.01010207	          0.01010159	          0.01010316	          0.01010148	          0.01010193	          0.01010148	          0.01009919	          0.01010331	          0.01010133	          0.01010046	          0.01010241	          0.01010209	          0.01010271	          0.01010304	          0.01010287	          0.01010185	          0.01010278	          0.01010229	
          1.54000000	        -23.14337555	          1.38327327	          1.49729689	         -4.87228200	         37.03669280	         -1.99830359	         68.34231787	         55.63769547	        -21.84174516	          0.01009967	          0.01008701	          0.01009678	          0.01009858	          0.01010567	          0.01010711	          0.01010892	          0.01008667	          0.01008848	          0.01009805	          0.01010166	          0.01010331	          0.01010183	          0.01010213	          0.01010031	          0.01010100	          0.01010207	          0.01010416	          0.01010477	          0.01010528	          0.01010230	          0.01010239	          0.01008800	          0.01011261	          0.01010036	          0.01010279	          0.01010213	          0.01010265	          0.01010295	          0.01010276	          0.01010178	          0.01010266	          0.01010219	
